<?xml version="1.0" encoding="utf-8"?>
<!-- Generator: Adobe Illustrator 23.0.4, SVG Export Plug-In . SVG Version: 6.00 Build 0)  -->
<svg version="1.1" id="Calque_1" xmlns="http://www.w3.org/2000/svg" xmlns:xlink="http://www.w3.org/1999/xlink" x="0px" y="0px"
	 viewBox="0 0 34.4971 18.5693" style="enable-background:new 0 0 34.4971 18.5693;" xml:space="preserve">
<style type="text/css">
	.st0{fill:#FFFFFF;}
</style>
<path class="st0" d="M33.4971,8.2852h-1.6584c-0.0866-0.0245-0.1719-0.0537-0.2664-0.0537s-0.1797,0.0292-0.2664,0.0537h-5.2578
	c-0.0866-0.0245-0.1719-0.0537-0.2664-0.0537s-0.1797,0.0292-0.2664,0.0537h-7.002C18.0128,3.6339,14.0663,0,9.2847,0
	C4.165,0,0,4.165,0,9.2852c0,5.1191,4.165,9.2842,9.2847,9.2842c4.7816,0,8.728-3.6339,9.2286-8.2842h6.2684v3.9639
	c0,0.5527,0.4478,1,1,1s1-0.4473,1-1v-3.9639h3.7905v6.2803c0,0.5527,0.4478,1,1,1s1-0.4473,1-1v-6.2803h0.9248
	c0.5522,0,1-0.4473,1-1S34.0493,8.2852,33.4971,8.2852z M9.2847,16.5693C5.2681,16.5693,2,13.3018,2,9.2852S5.2681,2,9.2847,2
	c3.8393,0,6.9869,2.9884,7.2581,6.7599c-0.0984,0.1548-0.1702,0.3281-0.1702,0.5253s0.0717,0.3704,0.1702,0.5252
	C16.2717,13.5818,13.124,16.5693,9.2847,16.5693z"/>
</svg>
