<?xml version="1.0" encoding="utf-8"?>
<!-- Generator: Adobe Illustrator 23.0.4, SVG Export Plug-In . SVG Version: 6.00 Build 0)  -->
<svg version="1.1" id="Calque_1" xmlns="http://www.w3.org/2000/svg" xmlns:xlink="http://www.w3.org/1999/xlink" x="0px" y="0px"
	 viewBox="0 0 36.2 30.5" style="enable-background:new 0 0 36.2 30.5;" xml:space="preserve">
<style type="text/css">
	.st0{fill:#9B9B9B;}
</style>
<g>
	<path class="st0" d="M29.7,28.1c-0.7-1.1-2.3-1.8-4.2-2.5c-0.5-0.2-1-0.4-1.5-0.6c-1.1-0.5-1.8-0.8-2.2-1l0-1.2
		c0.3-0.4,0.7-1.1,1-2.3c0,0,0.1-0.1,0.1-0.1c0.6-0.4,1.1-1.4,1.1-2c0-0.3,0.1-1.6-0.6-2.3c0.1-0.9,0.1-1.5,0.1-1.9
		c-0.2-2.2-2.3-4.5-5.5-4.5c-3.2,0-5.3,2.3-5.5,4.5c0,0.4,0,1.1,0.1,1.9c-0.7,0.7-0.6,2.2-0.6,2.3c0,0.6,0.5,1.5,1.1,2
		c0,0,0.1,0.1,0.1,0.1c0.2,1.2,0.7,1.9,1,2.3l0,1.2c-0.4,0.2-1.1,0.5-2.2,1c-0.5,0.2-1,0.4-1.5,0.6c-1.9,0.7-3.5,1.4-4.2,2.5
		c-0.2,0.3-0.2,0.5-0.2,1.4c0,0.3,0,0.5,0,0.6l2,0.4c0-0.1,0.1-0.5,0.1-0.9c0-0.2,0-0.4,0-0.6c0.5-0.5,1.9-1.1,3.1-1.6
		c0.5-0.2,1-0.4,1.5-0.6c2.2-1,2.8-1.3,2.9-1.4l0.5-0.3l0-2.7l0-0.5l-0.3-0.3c0,0-0.6-0.5-0.8-2.1L15,18.5l-0.8,0.2
		c-0.1-0.1-0.1-0.2-0.1-0.3c0-0.2,0-0.4,0-0.5L15,18l-0.2-1.4c-0.1-0.5-0.2-1.7-0.2-2.2c0.1-1.3,1.5-2.7,3.5-2.7
		c2,0,3.4,1.4,3.5,2.7c0,0.5-0.1,1.8-0.2,2.2L21.2,18l0.9-0.2c0,0.2,0,0.4,0,0.5c0,0.1-0.1,0.2-0.1,0.3l-0.8-0.2L21,19.6
		c-0.2,1.5-0.7,2.1-0.7,2.1c0,0,0,0,0,0L19.9,22l0,3.2l0.5,0.3c0.1,0.1,0.7,0.4,2.9,1.4c0.5,0.2,1,0.4,1.5,0.6
		c1.2,0.5,2.6,1,3.1,1.6c0,0.2,0,0.4,0,0.6c0,0.4,0.1,0.8,0.1,0.9l2-0.4c0-0.1,0-0.3,0-0.6C29.9,28.6,29.9,28.4,29.7,28.1z"/>
	<path class="st0" d="M18.1,0C8.1,0,0,8.1,0,18.1c0,2,0.3,4,1,5.9l1.9-0.7C2.3,21.7,2,19.9,2,18.1C2,9.2,9.2,2,18.1,2
		s16.1,7.2,16.1,16.1c0,1.8-0.3,3.6-0.9,5.3l1.9,0.7c0.7-1.9,1-3.9,1-5.9C36.2,8.1,28.1,0,18.1,0z"/>
</g>
</svg>
